<svg width="36" height="36" viewBox="0 0 36 36" fill="none" xmlns="http://www.w3.org/2000/svg">
<path d="M29.04 12.12L18.7734 7.12842C18.6057 7.04689 18.4108 7.04255 18.2396 7.11651L6.66204 12.12L18.2121 17.7355C18.3985 17.8262 18.6172 17.8209 18.7991 17.7215L29.04 12.12Z" fill="#2B2B2B"/>
<path d="M6.66204 12.12L18.2121 17.7355C18.3985 17.8262 18.6172 17.8209 18.7991 17.7215L29.04 12.12L18.7734 7.12842C18.6057 7.04689 18.4108 7.04255 18.2396 7.11651L6.66204 12.12ZM6.66204 12.12C6.66204 12.12 6.05427 13.6507 6.00386 14.68C5.94152 15.953 6.66204 17.88 6.66204 17.88M29.04 17.88L18.7991 23.4815C18.6172 23.5809 18.3985 23.5862 18.2121 23.4955L6.66204 17.88M6.66204 17.88C6.66204 17.88 6.00386 19.8056 6.00386 21.08C6.00386 22.3544 6.66204 24.28 6.66204 24.28L18.2121 29.8955C18.3985 29.9862 18.6172 29.9809 18.7991 29.8815L29.04 24.28" stroke="#2B2B2B" stroke-width="2.56" stroke-linecap="round" stroke-linejoin="round"/>
</svg>
